<svg width="259" height="315" viewBox="0 0 259 315" fill="none" xmlns="http://www.w3.org/2000/svg">
<path d="M28.1522 129.375V101.25C28.1522 65.0763 47.4694 31.6478 78.8261 13.5642C110.183 -4.52581 148.817 -4.52581 180.174 13.5642C211.531 31.6478 230.848 65.0763 230.848 101.25V129.375C230.848 133.393 228.699 137.108 225.217 139.121C221.736 141.133 217.438 141.126 213.957 139.121C210.475 137.115 208.326 133.399 208.326 129.375V101.25C208.326 73.1121 193.301 47.1149 168.913 33.0492C144.525 18.9835 114.475 18.9835 90.087 33.0492C65.6991 47.1149 50.6739 73.1121 50.6739 101.25V129.375C50.6739 133.393 48.5247 137.108 45.0435 139.121C41.5623 141.133 37.2638 141.126 33.7826 139.121C30.3014 137.115 28.1522 133.399 28.1522 129.375ZM259 183.542V283.384C259 291.767 255.667 299.809 249.734 305.736C243.801 311.664 235.751 314.993 227.36 314.993H31.6977C23.3003 314.993 15.244 311.664 9.3047 305.736C3.35896 299.816 0.0128696 291.774 0 283.384V183.542C0 175.146 3.33965 167.091 9.28539 161.151C15.2311 155.211 23.2939 151.875 31.6977 151.875H227.354C235.751 151.888 243.801 155.231 249.734 161.171C255.667 167.104 259 175.153 259 183.542ZM61.9348 236.25C61.9348 232.232 59.7856 228.516 56.3043 226.504C52.8231 224.492 48.5247 224.498 45.0435 226.504C41.5623 228.51 39.413 232.226 39.413 236.25V258.75C39.413 262.768 41.5623 266.484 45.0435 268.496C48.5247 270.508 52.8231 270.501 56.3043 268.496C59.7856 266.49 61.9348 262.774 61.9348 258.75V236.25ZM157.652 225C157.652 218.205 155.194 211.641 150.735 206.518C146.269 201.394 140.098 198.058 133.361 197.126C126.624 196.194 119.777 197.73 114.089 201.452C108.4 205.174 104.25 210.825 102.403 217.363C100.563 223.901 101.148 230.888 104.057 237.028C106.965 243.167 112.004 248.046 118.239 250.766V258.756C118.239 262.774 120.388 266.49 123.87 268.502C127.351 270.514 131.649 270.508 135.13 268.502C138.612 266.496 140.761 262.781 140.761 258.756V250.766C145.78 248.58 150.046 244.973 153.051 240.403C156.05 235.826 157.652 230.477 157.652 225.006V225ZM129.5 219.375C127.222 219.375 125.169 220.744 124.301 222.846C123.426 224.948 123.908 227.366 125.517 228.979C127.126 230.593 129.551 231.068 131.656 230.194C133.76 229.326 135.13 227.276 135.13 225C135.13 223.508 134.538 222.075 133.483 221.021C132.428 219.966 130.993 219.375 129.5 219.375Z" fill="#EFD50F"/>
</svg>
