<svg width="17" height="18" viewBox="0 0 17 18" fill="none" xmlns="http://www.w3.org/2000/svg">
<path d="M8.62477 0.500666C6.32731 0.467061 4.11409 1.36492 2.48964 2.98966C-0.829879 6.30917 -0.829879 11.6915 2.48964 15.0107C5.80915 18.3299 11.1911 18.3302 14.5107 15.0107C17.8301 11.6912 17.8301 6.30885 14.5107 2.98966C12.9469 1.42599 10.8358 0.53318 8.62477 0.500666V0.500666ZM6.1361 5.81468C6.27557 5.79559 6.43744 5.90382 6.59016 5.98303L11.8476 8.70821C12.051 8.81376 12.0535 9.19305 11.8476 9.29321L6.59016 12.0188C6.38411 12.1192 6.167 12.2815 6.00516 12.1193V5.88203C6.04571 5.84164 6.08957 5.82081 6.13611 5.8145L6.1361 5.81468Z" fill="white" fill-opacity="0.45"/>
</svg>
