<svg width="29" height="26" viewBox="0 0 29 26" fill="none" xmlns="http://www.w3.org/2000/svg">
<path d="M9.76487 8.30028C10.6605 8.30028 11.4575 8.29743 12.2545 8.30099C12.9867 8.30454 13.2721 8.79642 12.9043 9.43046C10.9988 12.7144 9.09049 15.9969 7.18078 19.278C6.81717 19.9028 6.24355 19.8979 5.87641 19.2674C3.97164 15.9969 2.06898 12.7251 0.16844 9.45179C-0.211387 8.79713 0.0704882 8.30312 0.821685 8.30028C1.81882 8.29743 2.81525 8.29104 3.81238 8.30525C4.05127 8.30881 4.15204 8.22493 4.24858 8.00813C6.17942 3.66366 9.46186 0.995995 14.1128 0.183539C20.956 -1.01204 27.5899 3.78095 28.7999 10.7071C30.0239 17.7164 25.5203 24.3987 18.5918 25.7428C14.5659 26.524 10.9487 25.5196 7.7847 22.884C7.31467 22.4923 7.30129 22.117 7.7248 21.6884C8.50207 20.9001 9.28146 20.1139 10.063 19.3292C10.4837 18.9063 10.7634 18.8906 11.225 19.2524C15.9189 22.933 22.6924 20.4167 23.8826 14.549C24.7867 10.0929 21.7023 5.70156 17.2198 5.11656C14.3355 4.74054 11.948 5.73283 10.0439 7.93563C9.96218 8.02946 9.89242 8.13395 9.76558 8.30028H9.76487Z" fill="#11105B"/>
</svg>
