<svg width="147" height="18" viewBox="0 0 147 18" fill="none" xmlns="http://www.w3.org/2000/svg">
<path d="M20.3827 6.80727C20.2969 6.56317 20.0687 6.38502 19.7941 6.34813L13.6228 5.51842L10.8633 0.345362C10.6177 -0.115121 9.80088 -0.115121 9.55507 0.345362L6.79557 5.51842L0.624288 6.34802C0.349693 6.38491 0.121502 6.56305 0.0357036 6.80715C-0.0500777 7.05155 0.0215427 7.31944 0.220126 7.49893L4.68545 11.5255L3.63117 17.2113C3.58445 17.4643 3.69709 17.7203 3.92139 17.8711C4.1465 18.022 4.44405 18.0421 4.68936 17.9225L10.2089 15.2378L15.7285 17.9225C15.9736 18.0415 16.2712 18.0223 16.4965 17.8711C16.7208 17.7203 16.8333 17.4642 16.7867 17.2113L15.7324 11.5255L20.1977 7.49893C20.3965 7.31944 20.4679 7.05167 20.3822 6.8073L20.3827 6.80727Z" fill="#11105B"/>
<path d="M51.9376 6.80727C51.8518 6.56317 51.6236 6.38502 51.349 6.34813L45.1777 5.51842L42.4182 0.345362C42.1726 -0.115121 41.3558 -0.115121 41.11 0.345362L38.3505 5.51842L32.1792 6.34802C31.9046 6.38491 31.6764 6.56305 31.5906 6.80715C31.5049 7.05155 31.5765 7.31944 31.7751 7.49893L36.2404 11.5255L35.1861 17.2113C35.1394 17.4643 35.252 17.7203 35.4763 17.8711C35.7014 18.022 35.999 18.0421 36.2443 17.9225L41.7639 15.2378L47.2834 17.9225C47.5286 18.0415 47.8261 18.0223 48.0514 17.8711C48.2757 17.7203 48.3882 17.4642 48.3416 17.2113L47.2873 11.5255L51.7527 7.49893C51.9514 7.31944 52.0229 7.05167 51.9371 6.8073L51.9376 6.80727Z" fill="#11105B"/>
<path d="M83.4925 6.80727C83.4067 6.56317 83.1785 6.38502 82.9039 6.34813L76.7326 5.51842L73.9731 0.345362C73.7275 -0.115121 72.9107 -0.115121 72.6649 0.345362L69.9054 5.51842L63.7341 6.34802C63.4595 6.38491 63.2313 6.56305 63.1455 6.80715C63.0598 7.05155 63.1314 7.31944 63.33 7.49893L67.7953 11.5255L66.741 17.2113C66.6943 17.4643 66.8069 17.7203 67.0312 17.8711C67.2563 18.022 67.5539 18.0421 67.7992 17.9225L73.3188 15.2378L78.8383 17.9225C79.0835 18.0415 79.381 18.0223 79.6063 17.8711C79.8306 17.7203 79.9431 17.4642 79.8965 17.2113L78.8422 11.5255L83.3076 7.49893C83.5063 7.31944 83.5778 7.05167 83.492 6.8073L83.4925 6.80727Z" fill="#11105B"/>
<path d="M115.047 6.80727C114.962 6.56317 114.733 6.38502 114.459 6.34813L108.288 5.51842L105.528 0.345362C105.282 -0.115121 104.466 -0.115121 104.22 0.345362L101.46 5.51842L95.2891 6.34802C95.0145 6.38491 94.7863 6.56305 94.7005 6.80715C94.6147 7.05155 94.6863 7.31944 94.8849 7.49893L99.3502 11.5255L98.2959 17.2113C98.2492 17.4643 98.3619 17.7203 98.5862 17.8711C98.8113 18.022 99.1088 18.0421 99.3541 17.9225L104.874 15.2378L110.393 17.9225C110.638 18.0415 110.936 18.0223 111.161 17.8711C111.386 17.7203 111.498 17.4642 111.451 17.2113L110.397 11.5255L114.863 7.49893C115.061 7.31944 115.133 7.05167 115.047 6.8073L115.047 6.80727Z" fill="#11105B"/>
<path d="M146.602 6.80727C146.517 6.56317 146.288 6.38502 146.014 6.34813L139.842 5.51842L137.083 0.345362C136.837 -0.115121 136.021 -0.115121 135.775 0.345362L133.015 5.51842L126.844 6.34802C126.569 6.38491 126.341 6.56305 126.255 6.80715C126.17 7.05155 126.241 7.31944 126.44 7.49893L130.905 11.5255L129.851 17.2113C129.804 17.4643 129.917 17.7203 130.141 17.8711C130.366 18.022 130.664 18.0421 130.909 17.9225L136.429 15.2378L141.948 17.9225C142.193 18.0415 142.491 18.0223 142.716 17.8711C142.94 17.7203 143.053 17.4642 143.006 17.2113L141.952 11.5255L146.417 7.49893C146.616 7.31944 146.688 7.05167 146.602 6.8073L146.602 6.80727Z" fill="#11105B"/>
</svg>
