<svg width="111" height="26" viewBox="0 0 111 26" fill="none" xmlns="http://www.w3.org/2000/svg">
<g opacity="0.2">
<path d="M34.6402 4.73149C34.2323 3.21653 33.0378 2.02204 31.5228 1.61417C28.7551 0.856689 17.6843 0.856689 17.6843 0.856689C17.6843 0.856689 6.61339 0.856689 3.84567 1.58504C2.35984 1.99291 1.13622 3.21653 0.728346 4.73149C0 7.49921 0 13.2386 0 13.2386C0 13.2386 0 19.0071 0.728346 21.7457C1.13622 23.2606 2.33071 24.4551 3.84567 24.863C6.64252 25.6205 17.6843 25.6205 17.6843 25.6205C17.6843 25.6205 28.7551 25.6205 31.5228 24.8921C33.0378 24.4842 34.2323 23.2898 34.6402 21.7748C35.3685 19.0071 35.3685 13.2677 35.3685 13.2677C35.3685 13.2677 35.3976 7.49921 34.6402 4.73149Z" fill="#FF0000"/>
<path d="M14.1591 7.93622V18.5409L23.3654 13.2386L14.1591 7.93622Z" fill="white"/>
<path d="M51.363 23.4063C50.6637 22.9402 50.1685 22.2118 49.8771 21.1921C49.5858 20.2016 49.4401 18.8614 49.4401 17.2299V14.9866C49.4401 13.326 49.6149 11.9858 49.9354 10.9662C50.285 9.94647 50.8094 9.21812 51.5086 8.75198C52.237 8.28584 53.1693 8.05276 54.3346 8.05276C55.4708 8.05276 56.4031 8.28584 57.1023 8.75198C57.8015 9.21812 58.2968 9.9756 58.6173 10.9662C58.9378 11.9567 59.1126 13.2969 59.1126 14.9866V17.2299C59.1126 18.8906 58.9669 20.2016 58.6464 21.2213C58.326 22.2118 57.8307 22.9693 57.1315 23.4354C56.4323 23.9016 55.4708 24.1347 54.2763 24.1347C53.0527 24.1055 52.0622 23.8725 51.363 23.4063ZM55.296 20.9591C55.5 20.4638 55.5874 19.6189 55.5874 18.4827V13.6465C55.5874 12.5394 55.5 11.7236 55.296 11.1992C55.0921 10.6748 54.7716 10.4417 54.2763 10.4417C53.8102 10.4417 53.4606 10.7039 53.2858 11.1992C53.0819 11.7236 52.9945 12.5394 52.9945 13.6465V18.4827C52.9945 19.6189 53.0819 20.4638 53.2858 20.9591C53.4606 21.4543 53.8102 21.7165 54.3055 21.7165C54.7716 21.7165 55.0921 21.4835 55.296 20.9591Z" fill="#282828"/>
<path d="M105.144 17.259V18.0457C105.144 19.0362 105.173 19.7937 105.232 20.289C105.29 20.7842 105.406 21.163 105.61 21.3669C105.785 21.6 106.076 21.7165 106.484 21.7165C107.009 21.7165 107.358 21.5126 107.562 21.1047C107.766 20.6968 107.854 20.0268 107.883 19.0653L110.883 19.2401C110.913 19.3858 110.913 19.5606 110.913 19.7937C110.913 21.2212 110.534 22.2992 109.747 22.9984C108.961 23.6976 107.854 24.0472 106.426 24.0472C104.707 24.0472 103.513 23.4937 102.813 22.4157C102.114 21.3378 101.765 19.6772 101.765 17.4047V14.6953C101.765 12.3646 102.114 10.6748 102.843 9.59684C103.571 8.51889 104.795 7.99448 106.513 7.99448C107.708 7.99448 108.64 8.22755 109.281 8.66455C109.922 9.10156 110.359 9.80078 110.621 10.7039C110.883 11.6362 111 12.9181 111 14.5496V17.2008H105.144V17.259ZM105.581 10.7331C105.406 10.9661 105.29 11.3157 105.232 11.811C105.173 12.3063 105.144 13.0638 105.144 14.0835V15.1905H107.708V14.0835C107.708 13.0929 107.679 12.3354 107.62 11.811C107.562 11.2866 107.417 10.937 107.242 10.7331C107.067 10.5291 106.776 10.4126 106.426 10.4126C106.018 10.3835 105.756 10.5 105.581 10.7331Z" fill="#282828"/>
<path d="M42.8559 16.9677L38.8937 2.60471H42.3606L43.759 9.10156C44.1086 10.7039 44.3708 12.0732 44.5456 13.2094H44.633C44.7496 12.3937 45.0118 11.0535 45.4197 9.13069L46.8764 2.60471H50.3433L46.3228 16.9677V23.8433H42.885V16.9677H42.8559Z" fill="#282828"/>
<path d="M70.3874 8.34409V23.8724H67.6488L67.3575 21.9787H67.2701C66.5417 23.4063 65.4055 24.1346 63.9197 24.1346C62.9 24.1346 62.1425 23.785 61.6472 23.115C61.152 22.4449 60.9189 21.3961 60.9189 19.9394V8.34409H64.4149V19.7354C64.4149 20.4346 64.5023 20.9299 64.648 21.2213C64.7937 21.5126 65.0559 21.6583 65.4055 21.6583C65.6968 21.6583 65.9882 21.5709 66.2795 21.3669C66.5709 21.1921 66.7748 20.959 66.8913 20.6677V8.34409H70.3874Z" fill="#282828"/>
<path d="M88.3047 8.34409V23.8724H85.5661L85.2748 21.9787H85.1874C84.459 23.4063 83.3228 24.1346 81.837 24.1346C80.8173 24.1346 80.0598 23.785 79.5645 23.115C79.0693 22.4449 78.8362 21.3961 78.8362 19.9394V8.34409H82.3322V19.7354C82.3322 20.4346 82.4196 20.9299 82.5653 21.2213C82.711 21.5126 82.9732 21.6583 83.3228 21.6583C83.6141 21.6583 83.9055 21.5709 84.1968 21.3669C84.4881 21.1921 84.6921 20.959 84.8086 20.6677V8.34409H88.3047Z" fill="#282828"/>
<path d="M79.8851 5.43069H76.4181V23.8433H73.0095V5.43069H69.5425V2.60471H79.8851V5.43069Z" fill="#282828"/>
<path d="M99.8708 10.8205C99.6669 9.82993 99.3173 9.13071 98.8512 8.69371C98.385 8.2567 97.7149 8.02363 96.8992 8.02363C96.2583 8.02363 95.6464 8.19843 95.0929 8.57717C94.5394 8.92678 94.1023 9.42205 93.811 10.0047H93.7819V1.81812H90.4023V23.8433H93.2866L93.6362 22.3866H93.7236C93.9858 22.911 94.3937 23.3189 94.9472 23.6394C95.5008 23.9307 96.0835 24.1055 96.7535 24.1055C97.948 24.1055 98.7929 23.552 99.3464 22.474C99.9 21.3961 100.191 19.6772 100.191 17.3756V14.9284C100.162 13.1512 100.075 11.7819 99.8708 10.8205ZM96.6661 17.1425C96.6661 18.2787 96.6079 19.1528 96.5205 19.7937C96.4331 20.4347 96.2583 20.9008 96.0543 21.163C95.8212 21.4252 95.5299 21.5709 95.1803 21.5709C94.889 21.5709 94.6268 21.5126 94.3937 21.3669C94.1606 21.2213 93.9567 21.0173 93.811 20.7551V11.9567C93.9275 11.5488 94.1315 11.1992 94.4228 10.9079C94.7142 10.6457 95.0346 10.5 95.3551 10.5C95.7047 10.5 95.996 10.6457 96.1709 10.9079C96.3748 11.1992 96.4913 11.6654 96.5787 12.3063C96.6661 12.9764 96.6953 13.9087 96.6953 15.1032V17.1425H96.6661Z" fill="#282828"/>
</g>
</svg>
